{
	"asset":{
		"generator":"Khronos glTF Blender I/O v4.4.56",
		"version":"2.0"
	},
	"scene":0,
	"scenes":[
		{
			"name":"Scene",
			"nodes":[
				3
			]
		}
	],
	"nodes":[
		{
			"name":"Empty",
			"scale":[
				0.10000002384185791,
				0.10000000894069672,
				0.10000000894069672
			],
			"translation":[
				0,
				1.2378357648849487,
				0.8254679441452026
			]
		},
		{
			"mesh":0,
			"name":"starducks_logo"
		},
		{
			"mesh":1,
			"name":"starducks_straw",
			"rotation":[
				-0.7071070671081543,
				0,
				0,
				0.7071065902709961
			],
			"scale":[
				0.8318300247192383,
				0.8318302035331726,
				0.8318302035331726
			],
			"translation":[
				0.5475220680236816,
				2.4443602561950684,
				-0.22046533226966858
			]
		},
		{
			"children":[
				0,
				1,
				2
			],
			"mesh":2,
			"name":"starducks_coffee",
			"scale":[
				192,
				192,
				192
			]
		}
	],
	"materials":[
		{
			"alphaMode":"BLEND",
			"doubleSided":true,
			"name":"starducks_logo",
			"pbrMetallicRoughness":{
				"baseColorTexture":{
					"index":0
				},
				"metallicFactor":0,
				"roughnessFactor":0.5
			}
		},
		{
			"doubleSided":true,
			"name":"starducks_coffee",
			"pbrMetallicRoughness":{
				"baseColorTexture":{
					"index":1
				},
				"metallicFactor":0
			}
		}
	],
	"meshes":[
		{
			"name":"starducks_logo",
			"primitives":[
				{
					"attributes":{
						"POSITION":0,
						"NORMAL":1,
						"TEXCOORD_0":2
					},
					"indices":3,
					"material":0
				}
			]
		},
		{
			"name":"starducks_straw",
			"primitives":[
				{
					"attributes":{
						"POSITION":4,
						"NORMAL":5,
						"TEXCOORD_0":6
					},
					"indices":7,
					"material":0
				}
			]
		},
		{
			"name":"starducks_coffee",
			"primitives":[
				{
					"attributes":{
						"POSITION":8,
						"NORMAL":9,
						"TEXCOORD_0":10
					},
					"indices":11,
					"material":1
				}
			]
		}
	],
	"textures":[
		{
			"sampler":0,
			"source":0
		},
		{
			"sampler":0,
			"source":1
		}
	],
	"images":[
		{
			"mimeType":"image/png",
			"name":"starducks_logo",
			"uri":"starducks_logo.png"
		},
		{
			"mimeType":"image/png",
			"name":"starducks_coffee",
			"uri":"starducks_coffee.png"
		}
	],
	"accessors":[
		{
			"bufferView":0,
			"componentType":5126,
			"count":289,
			"max":[
				0.622534453868866,
				1.262107014656067,
				1.022998332977295
			],
			"min":[
				-0.6142047047615051,
				0.07607340812683105,
				0.669407308101654
			],
			"type":"VEC3"
		},
		{
			"bufferView":1,
			"componentType":5126,
			"count":289,
			"type":"VEC3"
		},
		{
			"bufferView":2,
			"componentType":5126,
			"count":289,
			"type":"VEC2"
		},
		{
			"bufferView":3,
			"componentType":5123,
			"count":1440,
			"type":"SCALAR"
		},
		{
			"bufferView":4,
			"componentType":5126,
			"count":108,
			"max":[
				0.3740899860858917,
				0.3522000014781952,
				0.5595200061798096
			],
			"min":[
				-0.3740899860858917,
				-0.3522000014781952,
				-0.5595200061798096
			],
			"type":"VEC3"
		},
		{
			"bufferView":5,
			"componentType":5126,
			"count":108,
			"type":"VEC3"
		},
		{
			"bufferView":6,
			"componentType":5126,
			"count":108,
			"type":"VEC2"
		},
		{
			"bufferView":7,
			"componentType":5123,
			"count":324,
			"type":"SCALAR"
		},
		{
			"bufferView":8,
			"componentType":5126,
			"count":1149,
			"max":[
				1.046041488647461,
				2.7337355613708496,
				1.0336389541625977
			],
			"min":[
				-1.0293421745300293,
				-0.0011405942495912313,
				-1.0468584299087524
			],
			"type":"VEC3"
		},
		{
			"bufferView":9,
			"componentType":5126,
			"count":1149,
			"type":"VEC3"
		},
		{
			"bufferView":10,
			"componentType":5126,
			"count":1149,
			"type":"VEC2"
		},
		{
			"bufferView":11,
			"componentType":5123,
			"count":6108,
			"type":"SCALAR"
		}
	],
	"bufferViews":[
		{
			"buffer":0,
			"byteLength":3468,
			"byteOffset":0,
			"target":34962
		},
		{
			"buffer":0,
			"byteLength":3468,
			"byteOffset":3468,
			"target":34962
		},
		{
			"buffer":0,
			"byteLength":2312,
			"byteOffset":6936,
			"target":34962
		},
		{
			"buffer":0,
			"byteLength":2880,
			"byteOffset":9248,
			"target":34963
		},
		{
			"buffer":0,
			"byteLength":1296,
			"byteOffset":12128,
			"target":34962
		},
		{
			"buffer":0,
			"byteLength":1296,
			"byteOffset":13424,
			"target":34962
		},
		{
			"buffer":0,
			"byteLength":864,
			"byteOffset":14720,
			"target":34962
		},
		{
			"buffer":0,
			"byteLength":648,
			"byteOffset":15584,
			"target":34963
		},
		{
			"buffer":0,
			"byteLength":13788,
			"byteOffset":16232,
			"target":34962
		},
		{
			"buffer":0,
			"byteLength":13788,
			"byteOffset":30020,
			"target":34962
		},
		{
			"buffer":0,
			"byteLength":9192,
			"byteOffset":43808,
			"target":34962
		},
		{
			"buffer":0,
			"byteLength":12216,
			"byteOffset":53000,
			"target":34963
		}
	],
	"samplers":[
		{
			"magFilter":9729,
			"minFilter":9987
		}
	],
	"buffers":[
		{
			"byteLength":65216,
			"uri":"starducks_coffee.bin"
		}
	]
}
