{
	"asset":{
		"copyright":"METATIGER",
		"generator":"Khronos glTF Blender I/O v4.4.56",
		"version":"2.0"
	},
	"scene":0,
	"scenes":[
		{
			"name":"Scene",
			"nodes":[
				0
			]
		}
	],
	"nodes":[
		{
			"mesh":0,
			"name":"dj_desk"
		}
	],
	"materials":[
		{
			"doubleSided":true,
			"emissiveFactor":[
				1,
				1,
				1
			],
			"emissiveTexture":{
				"index":0
			},
			"name":"djtech",
			"pbrMetallicRoughness":{
				"baseColorTexture":{
					"index":1
				},
				"metallicFactor":0
			}
		}
	],
	"meshes":[
		{
			"name":"dj_desk",
			"primitives":[
				{
					"attributes":{
						"POSITION":0,
						"NORMAL":1,
						"TEXCOORD_0":2,
						"TEXCOORD_1":3,
						"TEXCOORD_2":4,
						"TEXCOORD_3":5,
						"TEXCOORD_4":6,
						"TEXCOORD_5":7
					},
					"indices":8,
					"material":0
				}
			]
		}
	],
	"textures":[
		{
			"sampler":0,
			"source":0
		},
		{
			"sampler":0,
			"source":0
		}
	],
	"images":[
		{
			"mimeType":"image/png",
			"name":"djtech",
			"uri":"djtech.png"
		}
	],
	"accessors":[
		{
			"bufferView":0,
			"componentType":5126,
			"count":856,
			"max":[
				162.6118927001953,
				74.14652252197266,
				61.04682922363281
			],
			"min":[
				-162.598388671875,
				-6.577073574066162,
				-86.31542205810547
			],
			"type":"VEC3"
		},
		{
			"bufferView":1,
			"componentType":5126,
			"count":856,
			"type":"VEC3"
		},
		{
			"bufferView":2,
			"componentType":5126,
			"count":856,
			"type":"VEC2"
		},
		{
			"bufferView":3,
			"componentType":5126,
			"count":856,
			"type":"VEC2"
		},
		{
			"bufferView":4,
			"componentType":5126,
			"count":856,
			"type":"VEC2"
		},
		{
			"bufferView":5,
			"componentType":5126,
			"count":856,
			"type":"VEC2"
		},
		{
			"bufferView":6,
			"componentType":5126,
			"count":856,
			"type":"VEC2"
		},
		{
			"bufferView":7,
			"componentType":5126,
			"count":856,
			"type":"VEC2"
		},
		{
			"bufferView":8,
			"componentType":5123,
			"count":2163,
			"type":"SCALAR"
		}
	],
	"bufferViews":[
		{
			"buffer":0,
			"byteLength":10272,
			"byteOffset":0,
			"target":34962
		},
		{
			"buffer":0,
			"byteLength":10272,
			"byteOffset":10272,
			"target":34962
		},
		{
			"buffer":0,
			"byteLength":6848,
			"byteOffset":20544,
			"target":34962
		},
		{
			"buffer":0,
			"byteLength":6848,
			"byteOffset":27392,
			"target":34962
		},
		{
			"buffer":0,
			"byteLength":6848,
			"byteOffset":34240,
			"target":34962
		},
		{
			"buffer":0,
			"byteLength":6848,
			"byteOffset":41088,
			"target":34962
		},
		{
			"buffer":0,
			"byteLength":6848,
			"byteOffset":47936,
			"target":34962
		},
		{
			"buffer":0,
			"byteLength":6848,
			"byteOffset":54784,
			"target":34962
		},
		{
			"buffer":0,
			"byteLength":4326,
			"byteOffset":61632,
			"target":34963
		}
	],
	"samplers":[
		{
			"magFilter":9729,
			"minFilter":9987
		}
	],
	"buffers":[
		{
			"byteLength":65960,
			"uri":"dj_booth.bin"
		}
	]
}
