{
	"asset":{
		"copyright":"METATIGER",
		"generator":"Khronos glTF Blender I/O v4.4.56",
		"version":"2.0"
	},
	"scene":0,
	"scenes":[
		{
			"name":"Scene",
			"nodes":[
				0
			]
		}
	],
	"nodes":[
		{
			"mesh":0,
			"name":"palmisland",
			"translation":[
				0,
				-9,
				0
			]
		}
	],
	"materials":[
		{
			"doubleSided":true,
			"name":"palmisland",
			"pbrMetallicRoughness":{
				"baseColorTexture":{
					"index":0
				},
				"metallicFactor":0.5,
				"roughnessFactor":0.5
			}
		},
		{
			"doubleSided":true,
			"name":"palmisland_details",
			"pbrMetallicRoughness":{
				"baseColorTexture":{
					"index":1
				},
				"metallicFactor":0.5,
				"roughnessFactor":0.5
			}
		}
	],
	"meshes":[
		{
			"name":"palmisland",
			"primitives":[
				{
					"attributes":{
						"POSITION":0,
						"NORMAL":1,
						"TEXCOORD_0":2
					},
					"indices":3,
					"material":0
				},
				{
					"attributes":{
						"POSITION":4,
						"NORMAL":5,
						"TEXCOORD_0":6
					},
					"indices":7,
					"material":1
				}
			]
		}
	],
	"textures":[
		{
			"sampler":0,
			"source":0
		},
		{
			"sampler":0,
			"source":1
		}
	],
	"images":[
		{
			"mimeType":"image/png",
			"name":"palmisland1",
			"uri":"palmisland1.png"
		},
		{
			"mimeType":"image/png",
			"name":"palmisland2",
			"uri":"palmisland2.png"
		}
	],
	"accessors":[
		{
			"bufferView":0,
			"componentType":5126,
			"count":341,
			"max":[
				64,
				19.4330997467041,
				64
			],
			"min":[
				-64,
				0.23309898376464844,
				-64
			],
			"type":"VEC3"
		},
		{
			"bufferView":1,
			"componentType":5126,
			"count":341,
			"type":"VEC3"
		},
		{
			"bufferView":2,
			"componentType":5126,
			"count":341,
			"type":"VEC2"
		},
		{
			"bufferView":3,
			"componentType":5123,
			"count":1860,
			"type":"SCALAR"
		},
		{
			"bufferView":4,
			"componentType":5126,
			"count":1429,
			"max":[
				55.65849685668945,
				106.39154052734375,
				56.513301849365234
			],
			"min":[
				-51.26093292236328,
				8.997040748596191,
				-63.51021194458008
			],
			"type":"VEC3"
		},
		{
			"bufferView":5,
			"componentType":5126,
			"count":1429,
			"type":"VEC3"
		},
		{
			"bufferView":6,
			"componentType":5126,
			"count":1429,
			"type":"VEC2"
		},
		{
			"bufferView":7,
			"componentType":5123,
			"count":6981,
			"type":"SCALAR"
		}
	],
	"bufferViews":[
		{
			"buffer":0,
			"byteLength":4092,
			"byteOffset":0,
			"target":34962
		},
		{
			"buffer":0,
			"byteLength":4092,
			"byteOffset":4092,
			"target":34962
		},
		{
			"buffer":0,
			"byteLength":2728,
			"byteOffset":8184,
			"target":34962
		},
		{
			"buffer":0,
			"byteLength":3720,
			"byteOffset":10912,
			"target":34963
		},
		{
			"buffer":0,
			"byteLength":17148,
			"byteOffset":14632,
			"target":34962
		},
		{
			"buffer":0,
			"byteLength":17148,
			"byteOffset":31780,
			"target":34962
		},
		{
			"buffer":0,
			"byteLength":11432,
			"byteOffset":48928,
			"target":34962
		},
		{
			"buffer":0,
			"byteLength":13962,
			"byteOffset":60360,
			"target":34963
		}
	],
	"samplers":[
		{
			"magFilter":9729,
			"minFilter":9987
		}
	],
	"buffers":[
		{
			"byteLength":74324,
			"uri":"palmisland.bin"
		}
	]
}
