{
	"asset":{
		"copyright":"METATIGER",
		"generator":"Khronos glTF Blender I/O v4.4.56",
		"version":"2.0"
	},
	"scene":0,
	"scenes":[
		{
			"name":"Scene",
			"nodes":[
				0
			]
		}
	],
	"nodes":[
		{
			"mesh":0,
			"name":"duck.010"
		}
	],
	"materials":[
		{
			"doubleSided":true,
			"name":"prop_duck",
			"pbrMetallicRoughness":{
				"baseColorTexture":{
					"index":0
				},
				"metallicFactor":0.5,
				"roughnessFactor":0.800000011920929
			}
		}
	],
	"meshes":[
		{
			"name":"duck",
			"primitives":[
				{
					"attributes":{
						"POSITION":0,
						"NORMAL":1,
						"TEXCOORD_0":2
					},
					"indices":3,
					"material":0
				}
			]
		}
	],
	"textures":[
		{
			"sampler":0,
			"source":0
		}
	],
	"images":[
		{
			"mimeType":"image/png",
			"name":"rubberduck",
			"uri":"rubberduck.png"
		}
	],
	"accessors":[
		{
			"bufferView":0,
			"componentType":5126,
			"count":623,
			"max":[
				8.837057113647461,
				14.490700721740723,
				13.487661361694336
			],
			"min":[
				-8.662229537963867,
				-12.368511199951172,
				-13.645118713378906
			],
			"type":"VEC3"
		},
		{
			"bufferView":1,
			"componentType":5126,
			"count":623,
			"type":"VEC3"
		},
		{
			"bufferView":2,
			"componentType":5126,
			"count":623,
			"type":"VEC2"
		},
		{
			"bufferView":3,
			"componentType":5123,
			"count":3096,
			"type":"SCALAR"
		}
	],
	"bufferViews":[
		{
			"buffer":0,
			"byteLength":7476,
			"byteOffset":0,
			"target":34962
		},
		{
			"buffer":0,
			"byteLength":7476,
			"byteOffset":7476,
			"target":34962
		},
		{
			"buffer":0,
			"byteLength":4984,
			"byteOffset":14952,
			"target":34962
		},
		{
			"buffer":0,
			"byteLength":6192,
			"byteOffset":19936,
			"target":34963
		}
	],
	"samplers":[
		{
			"magFilter":9729,
			"minFilter":9987
		}
	],
	"buffers":[
		{
			"byteLength":26128,
			"uri":"rubberduck.bin"
		}
	]
}
