{
	"asset":{
		"copyright":"METATIGER",
		"generator":"Khronos glTF Blender I/O v4.4.56",
		"version":"2.0"
	},
	"scene":0,
	"scenes":[
		{
			"name":"Scene",
			"nodes":[
				0
			]
		}
	],
	"nodes":[
		{
			"mesh":0,
			"name":"rubikcube"
		}
	],
	"materials":[
		{
			"doubleSided":true,
			"name":"rubikcube",
			"pbrMetallicRoughness":{
				"baseColorTexture":{
					"index":0
				},
				"metallicFactor":0,
				"roughnessFactor":0.5
			}
		}
	],
	"meshes":[
		{
			"name":"rubikcube",
			"primitives":[
				{
					"attributes":{
						"POSITION":0,
						"NORMAL":1,
						"TEXCOORD_0":2
					},
					"indices":3,
					"material":0
				}
			]
		}
	],
	"textures":[
		{
			"sampler":0,
			"source":0
		}
	],
	"images":[
		{
			"mimeType":"image/png",
			"name":"rubikcube",
			"uri":"rubikcube.png"
		}
	],
	"accessors":[
		{
			"bufferView":0,
			"componentType":5126,
			"count":2168,
			"max":[
				35.55107116699219,
				35.55071258544922,
				35.549278259277344
			],
			"min":[
				-35.548683166503906,
				-35.549041748046875,
				-35.55047607421875
			],
			"type":"VEC3"
		},
		{
			"bufferView":1,
			"componentType":5126,
			"count":2168,
			"type":"VEC3"
		},
		{
			"bufferView":2,
			"componentType":5126,
			"count":2168,
			"type":"VEC2"
		},
		{
			"bufferView":3,
			"componentType":5123,
			"count":6900,
			"type":"SCALAR"
		}
	],
	"bufferViews":[
		{
			"buffer":0,
			"byteLength":26016,
			"byteOffset":0,
			"target":34962
		},
		{
			"buffer":0,
			"byteLength":26016,
			"byteOffset":26016,
			"target":34962
		},
		{
			"buffer":0,
			"byteLength":17344,
			"byteOffset":52032,
			"target":34962
		},
		{
			"buffer":0,
			"byteLength":13800,
			"byteOffset":69376,
			"target":34963
		}
	],
	"samplers":[
		{
			"magFilter":9729,
			"minFilter":9987
		}
	],
	"buffers":[
		{
			"byteLength":83176,
			"uri":"rubikcube.bin"
		}
	]
}
