{
	"asset":{
		"generator":"Khronos glTF Blender I/O v4.4.56",
		"version":"2.0"
	},
	"scene":0,
	"scenes":[
		{
			"name":"Scene",
			"nodes":[
				0,
				1
			]
		}
	],
	"nodes":[
		{
			"mesh":0,
			"name":"lamppole"
		},
		{
			"mesh":1,
			"name":"lampglass"
		}
	],
	"materials":[
		{
			"name":"lamppole",
			"pbrMetallicRoughness":{
				"baseColorTexture":{
					"index":0
				},
				"metallicFactor":0
			}
		},
		{
			"emissiveFactor":[
				1,
				1,
				1
			],
			"emissiveTexture":{
				"index":1
			},
			"name":"lampglass",
			"pbrMetallicRoughness":{
				"baseColorTexture":{
					"index":2
				},
				"metallicFactor":0
			}
		}
	],
	"meshes":[
		{
			"name":"lamppole",
			"primitives":[
				{
					"attributes":{
						"POSITION":0,
						"NORMAL":1,
						"TEXCOORD_0":2
					},
					"indices":3,
					"material":0
				}
			]
		},
		{
			"name":"lampglass",
			"primitives":[
				{
					"attributes":{
						"POSITION":4,
						"NORMAL":5,
						"TEXCOORD_0":6
					},
					"indices":7,
					"material":1
				}
			]
		}
	],
	"textures":[
		{
			"sampler":0,
			"source":0
		},
		{
			"sampler":0,
			"source":1
		},
		{
			"sampler":0,
			"source":1
		}
	],
	"images":[
		{
			"name":"lamppole",
			"uri":"lamppole.png"
		},
		{
			"name":"lampglass",
			"uri":"lampglass.png"
		}
	],
	"accessors":[
		{
			"bufferView":0,
			"componentType":5126,
			"count":582,
			"max":[
				34,
				203,
				12
			],
			"min":[
				-34,
				-5.245366310191457e-07,
				-12
			],
			"type":"VEC3"
		},
		{
			"bufferView":1,
			"componentType":5126,
			"count":582,
			"type":"VEC3"
		},
		{
			"bufferView":2,
			"componentType":5126,
			"count":582,
			"type":"VEC2"
		},
		{
			"bufferView":3,
			"componentType":5123,
			"count":582,
			"type":"SCALAR"
		},
		{
			"bufferView":4,
			"componentType":5126,
			"count":48,
			"max":[
				34,
				191,
				9.999991416931152
			],
			"min":[
				-34,
				170,
				-9.984383583068848
			],
			"type":"VEC3"
		},
		{
			"bufferView":5,
			"componentType":5126,
			"count":48,
			"type":"VEC3"
		},
		{
			"bufferView":6,
			"componentType":5126,
			"count":48,
			"type":"VEC2"
		},
		{
			"bufferView":7,
			"componentType":5123,
			"count":48,
			"type":"SCALAR"
		}
	],
	"bufferViews":[
		{
			"buffer":0,
			"byteLength":6984,
			"byteOffset":0,
			"target":34962
		},
		{
			"buffer":0,
			"byteLength":6984,
			"byteOffset":6984,
			"target":34962
		},
		{
			"buffer":0,
			"byteLength":4656,
			"byteOffset":13968,
			"target":34962
		},
		{
			"buffer":0,
			"byteLength":1164,
			"byteOffset":18624,
			"target":34963
		},
		{
			"buffer":0,
			"byteLength":576,
			"byteOffset":19788,
			"target":34962
		},
		{
			"buffer":0,
			"byteLength":576,
			"byteOffset":20364,
			"target":34962
		},
		{
			"buffer":0,
			"byteLength":384,
			"byteOffset":20940,
			"target":34962
		},
		{
			"buffer":0,
			"byteLength":96,
			"byteOffset":21324,
			"target":34963
		}
	],
	"samplers":[
		{
			"magFilter":9729,
			"minFilter":9987
		}
	],
	"buffers":[
		{
			"byteLength":21420,
			"uri":"streetlamp.bin"
		}
	]
}
