{
	"asset":{
		"copyright":"METATIGER",
		"generator":"Khronos glTF Blender I/O v4.4.56",
		"version":"2.0"
	},
	"scene":0,
	"scenes":[
		{
			"name":"Scene",
			"nodes":[
				0
			]
		}
	],
	"nodes":[
		{
			"mesh":0,
			"name":"sunshade"
		}
	],
	"materials":[
		{
			"doubleSided":true,
			"name":"tigerpalette",
			"pbrMetallicRoughness":{
				"baseColorTexture":{
					"index":0
				},
				"metallicFactor":0
			}
		}
	],
	"meshes":[
		{
			"name":"sunshade",
			"primitives":[
				{
					"attributes":{
						"POSITION":0,
						"NORMAL":1,
						"TEXCOORD_0":2
					},
					"indices":3,
					"material":0
				}
			]
		}
	],
	"textures":[
		{
			"sampler":0,
			"source":0
		}
	],
	"images":[
		{
			"mimeType":"image/png",
			"name":"tigerpalette",
			"uri":"tigerpalette.png"
		}
	],
	"accessors":[
		{
			"bufferView":0,
			"componentType":5126,
			"count":204,
			"max":[
				180,
				366.9630432128906,
				179.99996948242188
			],
			"min":[
				-180,
				-8.000001907348633,
				-180.00003051757812
			],
			"type":"VEC3"
		},
		{
			"bufferView":1,
			"componentType":5126,
			"count":204,
			"type":"VEC3"
		},
		{
			"bufferView":2,
			"componentType":5126,
			"count":204,
			"type":"VEC2"
		},
		{
			"bufferView":3,
			"componentType":5123,
			"count":468,
			"type":"SCALAR"
		}
	],
	"bufferViews":[
		{
			"buffer":0,
			"byteLength":2448,
			"byteOffset":0,
			"target":34962
		},
		{
			"buffer":0,
			"byteLength":2448,
			"byteOffset":2448,
			"target":34962
		},
		{
			"buffer":0,
			"byteLength":1632,
			"byteOffset":4896,
			"target":34962
		},
		{
			"buffer":0,
			"byteLength":936,
			"byteOffset":6528,
			"target":34963
		}
	],
	"samplers":[
		{
			"magFilter":9729,
			"minFilter":9987
		}
	],
	"buffers":[
		{
			"byteLength":7464,
			"uri":"sunshade.bin"
		}
	]
}
