{
	"asset":{
		"generator":"Khronos glTF Blender I/O v4.4.56",
		"version":"2.0"
	},
	"scene":0,
	"scenes":[
		{
			"name":"Scene",
			"nodes":[
				0,
				1
			]
		}
	],
	"nodes":[
		{
			"mesh":0,
			"name":"bark"
		},
		{
			"mesh":1,
			"name":"leaves",
			"rotation":[
				-0.7671552896499634,
				-0.3036542534828186,
				0.5635052919387817,
				0.0415772870182991
			],
			"scale":[
				57.80813217163086,
				57.808135986328125,
				57.808135986328125
			],
			"translation":[
				0.5835528373718262,
				228.22276306152344,
				6.218041896820068
			]
		}
	],
	"materials":[
		{
			"name":"bark",
			"pbrMetallicRoughness":{
				"baseColorTexture":{
					"index":0
				},
				"metallicFactor":0
			}
		},
		{
			"alphaMode":"MASK",
			"name":"leaves",
			"pbrMetallicRoughness":{
				"baseColorTexture":{
					"index":1
				},
				"metallicFactor":0
			}
		}
	],
	"meshes":[
		{
			"name":"bark",
			"primitives":[
				{
					"attributes":{
						"POSITION":0,
						"NORMAL":1,
						"TEXCOORD_0":2
					},
					"indices":3,
					"material":0
				}
			]
		},
		{
			"name":"leaves",
			"primitives":[
				{
					"attributes":{
						"POSITION":4,
						"NORMAL":5,
						"TEXCOORD_0":6
					},
					"indices":7,
					"material":1
				}
			]
		}
	],
	"textures":[
		{
			"sampler":0,
			"source":0
		},
		{
			"sampler":0,
			"source":1
		}
	],
	"images":[
		{
			"name":"bark1",
			"uri":"bark1.png"
		},
		{
			"name":"leaves1",
			"uri":"leaves1.png"
		}
	],
	"accessors":[
		{
			"bufferView":0,
			"componentType":5126,
			"count":34,
			"max":[
				14.5,
				391.71875,
				13.296875
			],
			"min":[
				-18.0625,
				0.46874934434890747,
				-14.96875
			],
			"type":"VEC3"
		},
		{
			"bufferView":1,
			"componentType":5126,
			"count":34,
			"type":"VEC3"
		},
		{
			"bufferView":2,
			"componentType":5126,
			"count":34,
			"type":"VEC2"
		},
		{
			"bufferView":3,
			"componentType":5123,
			"count":147,
			"type":"SCALAR"
		},
		{
			"bufferView":4,
			"componentType":5126,
			"count":1584,
			"max":[
				2.993619203567505,
				3.462871551513672,
				2.581645965576172
			],
			"min":[
				-2.993370532989502,
				-3.8667006492614746,
				-2.7199435234069824
			],
			"type":"VEC3"
		},
		{
			"bufferView":5,
			"componentType":5126,
			"count":1584,
			"type":"VEC3"
		},
		{
			"bufferView":6,
			"componentType":5126,
			"count":1584,
			"type":"VEC2"
		},
		{
			"bufferView":7,
			"componentType":5123,
			"count":2376,
			"type":"SCALAR"
		}
	],
	"bufferViews":[
		{
			"buffer":0,
			"byteLength":408,
			"byteOffset":0,
			"target":34962
		},
		{
			"buffer":0,
			"byteLength":408,
			"byteOffset":408,
			"target":34962
		},
		{
			"buffer":0,
			"byteLength":272,
			"byteOffset":816,
			"target":34962
		},
		{
			"buffer":0,
			"byteLength":294,
			"byteOffset":1088,
			"target":34963
		},
		{
			"buffer":0,
			"byteLength":19008,
			"byteOffset":1384,
			"target":34962
		},
		{
			"buffer":0,
			"byteLength":19008,
			"byteOffset":20392,
			"target":34962
		},
		{
			"buffer":0,
			"byteLength":12672,
			"byteOffset":39400,
			"target":34962
		},
		{
			"buffer":0,
			"byteLength":4752,
			"byteOffset":52072,
			"target":34963
		}
	],
	"samplers":[
		{
			"magFilter":9729,
			"minFilter":9987
		}
	],
	"buffers":[
		{
			"byteLength":56824,
			"uri":"hightree1.bin"
		}
	]
}
