{
   "accessors" : [
      {
         "bufferView" : 0,
         "byteOffset" : 0,
         "componentType" : 5123,
         "count" : 948,
         "max" : [ 303 ],
         "min" : [ 0 ],
         "type" : "SCALAR"
      },
      {
         "bufferView" : 1,
         "byteOffset" : 0,
         "componentType" : 5126,
         "count" : 304,
         "max" : [ 13.859375, 39.3125, 33.015625 ],
         "min" : [ -9.359375, 0.09374860674142838, -32.640625 ],
         "type" : "VEC3"
      },
      {
         "bufferView" : 2,
         "byteOffset" : 0,
         "componentType" : 5126,
         "count" : 304,
         "type" : "VEC3"
      },
      {
         "bufferView" : 3,
         "byteOffset" : 0,
         "componentType" : 5126,
         "count" : 304,
         "max" : [ 1, 0.9976872205734253 ],
         "min" : [ -0.0078125, -0.00397413969039917 ],
         "type" : "VEC2"
      }
   ],
   "asset" : {
      "extras" : {
         "date" : "Sat Oct 11 08:08:50 2025",
         "website" : "http://www.unwrap3d.com"
      },
      "generator" : "Ultimate Unwrap3D Pro 4 (x64) v4.07",
      "version" : "2.0"
   },
   "bufferViews" : [
      {
         "buffer" : 0,
         "byteLength" : 1896,
         "byteOffset" : 0,
         "target" : 34963
      },
      {
         "buffer" : 0,
         "byteLength" : 3648,
         "byteOffset" : 1896,
         "byteStride" : 12,
         "target" : 34962
      },
      {
         "buffer" : 0,
         "byteLength" : 3648,
         "byteOffset" : 5544,
         "byteStride" : 12,
         "target" : 34962
      },
      {
         "buffer" : 0,
         "byteLength" : 2432,
         "byteOffset" : 9192,
         "byteStride" : 8,
         "target" : 34962
      }
   ],
   "buffers" : [
      {
         "byteLength" : 11624,
         "uri" : "bench.bin"
      }
   ],
   "images" : [
      {
         "uri" : "bench.png"
      }
   ],
   "materials" : [
      {
         "name" : "bench",
         "pbrMetallicRoughness" : {
            "baseColorFactor" : [ 1, 1, 1, 1 ],
            "baseColorTexture" : {
               "index" : 0
            },
            "metallicFactor" : 0
         }
      }
   ],
   "meshes" : [
      {
         "name" : "StaticMesh",
         "primitives" : [
            {
               "attributes" : {
                  "NORMAL" : 2,
                  "POSITION" : 1,
                  "TEXCOORD_0" : 3
               },
               "indices" : 0,
               "material" : 0,
               "mode" : 4
            }
         ]
      }
   ],
   "nodes" : [
      {
         "mesh" : 0,
         "name" : "StaticMesh"
      }
   ],
   "samplers" : [
      {
         "magFilter" : 9729,
         "minFilter" : 9986,
         "wrapS" : 10497,
         "wrapT" : 10497
      }
   ],
   "scene" : 0,
   "scenes" : [
      {
         "nodes" : [ 0 ]
      }
   ],
   "textures" : [
      {
         "sampler" : 0,
         "source" : 0
      }
   ]
}
