{
	"asset":{
		"copyright":"METATIGER",
		"generator":"Khronos glTF Blender I/O v4.4.56",
		"version":"2.0"
	},
	"scene":0,
	"scenes":[
		{
			"name":"Scene",
			"nodes":[
				0
			]
		}
	],
	"nodes":[
		{
			"mesh":0,
			"name":"inflatable_chair"
		}
	],
	"materials":[
		{
			"doubleSided":true,
			"name":"inflatable_chair",
			"normalTexture":{
				"index":0
			},
			"pbrMetallicRoughness":{
				"baseColorTexture":{
					"index":1
				},
				"metallicFactor":0.5,
				"roughnessFactor":0.800000011920929
			}
		}
	],
	"meshes":[
		{
			"name":"inflatable_chair",
			"primitives":[
				{
					"attributes":{
						"POSITION":0,
						"NORMAL":1,
						"TEXCOORD_0":2
					},
					"indices":3,
					"material":0
				}
			]
		}
	],
	"textures":[
		{
			"sampler":0,
			"source":0
		},
		{
			"sampler":0,
			"source":1
		}
	],
	"images":[
		{
			"mimeType":"image/png",
			"name":"inflatable_chair_normal",
			"uri":"inflatable_chair_normal.png"
		},
		{
			"mimeType":"image/png",
			"name":"inflatable_chair_diffuse",
			"uri":"inflatable_chair_diffuse.png"
		}
	],
	"accessors":[
		{
			"bufferView":0,
			"componentType":5126,
			"count":962,
			"max":[
				61.50981140136719,
				120.75202941894531,
				56.76605987548828
			],
			"min":[
				-61.50981140136719,
				0,
				-71.21176147460938
			],
			"type":"VEC3"
		},
		{
			"bufferView":1,
			"componentType":5126,
			"count":962,
			"type":"VEC3"
		},
		{
			"bufferView":2,
			"componentType":5126,
			"count":962,
			"type":"VEC2"
		},
		{
			"bufferView":3,
			"componentType":5123,
			"count":4956,
			"type":"SCALAR"
		}
	],
	"bufferViews":[
		{
			"buffer":0,
			"byteLength":11544,
			"byteOffset":0,
			"target":34962
		},
		{
			"buffer":0,
			"byteLength":11544,
			"byteOffset":11544,
			"target":34962
		},
		{
			"buffer":0,
			"byteLength":7696,
			"byteOffset":23088,
			"target":34962
		},
		{
			"buffer":0,
			"byteLength":9912,
			"byteOffset":30784,
			"target":34963
		}
	],
	"samplers":[
		{
			"magFilter":9729,
			"minFilter":9987
		}
	],
	"buffers":[
		{
			"byteLength":40696,
			"uri":"inflatable_chair.bin"
		}
	]
}
