{
	"asset":{
		"copyright":"METATIGER",
		"generator":"Khronos glTF Blender I/O v4.4.56",
		"version":"2.0"
	},
	"scene":0,
	"scenes":[
		{
			"name":"Scene",
			"nodes":[
				0,
				1
			]
		}
	],
	"nodes":[
		{
			"mesh":0,
			"name":"cage"
		},
		{
			"mesh":1,
			"name":"cagedoor"
		}
	],
	"materials":[
		{
			"doubleSided":true,
			"name":"cage",
			"pbrMetallicRoughness":{
				"baseColorTexture":{
					"index":0
				},
				"metallicFactor":0.5,
				"roughnessFactor":0.5
			}
		}
	],
	"meshes":[
		{
			"name":"defaultMaterial",
			"primitives":[
				{
					"attributes":{
						"POSITION":0,
						"NORMAL":1,
						"TEXCOORD_0":2
					},
					"indices":3,
					"material":0
				}
			]
		},
		{
			"name":"cagedoor",
			"primitives":[
				{
					"attributes":{
						"POSITION":4,
						"NORMAL":5,
						"TEXCOORD_0":6
					},
					"indices":7,
					"material":0
				}
			]
		}
	],
	"textures":[
		{
			"sampler":0,
			"source":0
		}
	],
	"images":[
		{
			"mimeType":"image/png",
			"name":"cage",
			"uri":"cage.png"
		}
	],
	"accessors":[
		{
			"bufferView":0,
			"componentType":5126,
			"count":2705,
			"max":[
				0.4923020005226135,
				1.0864200592041016,
				0.49384599924087524
			],
			"min":[
				-0.4914090037345886,
				-1,
				-0.48169800639152527
			],
			"type":"VEC3"
		},
		{
			"bufferView":1,
			"componentType":5126,
			"count":2705,
			"type":"VEC3"
		},
		{
			"bufferView":2,
			"componentType":5126,
			"count":2705,
			"type":"VEC2"
		},
		{
			"bufferView":3,
			"componentType":5123,
			"count":5184,
			"type":"SCALAR"
		},
		{
			"bufferView":4,
			"componentType":5126,
			"count":930,
			"max":[
				0.4732770025730133,
				0.4842360019683838,
				-0.2392839938402176
			],
			"min":[
				-0.1445789933204651,
				-0.9465180039405823,
				-0.48802000284194946
			],
			"type":"VEC3"
		},
		{
			"bufferView":5,
			"componentType":5126,
			"count":930,
			"type":"VEC3"
		},
		{
			"bufferView":6,
			"componentType":5126,
			"count":930,
			"type":"VEC2"
		},
		{
			"bufferView":7,
			"componentType":5123,
			"count":1581,
			"type":"SCALAR"
		}
	],
	"bufferViews":[
		{
			"buffer":0,
			"byteLength":32460,
			"byteOffset":0,
			"target":34962
		},
		{
			"buffer":0,
			"byteLength":32460,
			"byteOffset":32460,
			"target":34962
		},
		{
			"buffer":0,
			"byteLength":21640,
			"byteOffset":64920,
			"target":34962
		},
		{
			"buffer":0,
			"byteLength":10368,
			"byteOffset":86560,
			"target":34963
		},
		{
			"buffer":0,
			"byteLength":11160,
			"byteOffset":96928,
			"target":34962
		},
		{
			"buffer":0,
			"byteLength":11160,
			"byteOffset":108088,
			"target":34962
		},
		{
			"buffer":0,
			"byteLength":7440,
			"byteOffset":119248,
			"target":34962
		},
		{
			"buffer":0,
			"byteLength":3162,
			"byteOffset":126688,
			"target":34963
		}
	],
	"samplers":[
		{
			"magFilter":9729,
			"minFilter":9987
		}
	],
	"buffers":[
		{
			"byteLength":129852,
			"uri":"cage.bin"
		}
	]
}
