{
	"asset":{
		"copyright":"METATIGER",
		"generator":"Khronos glTF Blender I/O v4.4.56",
		"version":"2.0"
	},
	"scene":0,
	"scenes":[
		{
			"name":"Scene",
			"nodes":[
				0
			]
		}
	],
	"nodes":[
		{
			"mesh":0,
			"name":"ghostdonut"
		}
	],
	"materials":[
		{
			"doubleSided":true,
			"name":"ghostdonut",
			"pbrMetallicRoughness":{
				"baseColorTexture":{
					"index":0
				},
				"metallicFactor":0.20000000298023224,
				"roughnessFactor":0.800000011920929
			}
		}
	],
	"meshes":[
		{
			"name":"ghostdonut",
			"primitives":[
				{
					"attributes":{
						"POSITION":0,
						"NORMAL":1,
						"TEXCOORD_0":2
					},
					"indices":3,
					"material":0
				}
			]
		}
	],
	"textures":[
		{
			"sampler":0,
			"source":0
		}
	],
	"images":[
		{
			"mimeType":"image/png",
			"name":"ghostdonut",
			"uri":"ghostdonut.png"
		}
	],
	"accessors":[
		{
			"bufferView":0,
			"componentType":5126,
			"count":1292,
			"max":[
				53.51015090942383,
				31.297971725463867,
				55.92902755737305
			],
			"min":[
				-55.265750885009766,
				-17.38847541809082,
				-52.99138641357422
			],
			"type":"VEC3"
		},
		{
			"bufferView":1,
			"componentType":5126,
			"count":1292,
			"type":"VEC3"
		},
		{
			"bufferView":2,
			"componentType":5126,
			"count":1292,
			"type":"VEC2"
		},
		{
			"bufferView":3,
			"componentType":5123,
			"count":7002,
			"type":"SCALAR"
		}
	],
	"bufferViews":[
		{
			"buffer":0,
			"byteLength":15504,
			"byteOffset":0,
			"target":34962
		},
		{
			"buffer":0,
			"byteLength":15504,
			"byteOffset":15504,
			"target":34962
		},
		{
			"buffer":0,
			"byteLength":10336,
			"byteOffset":31008,
			"target":34962
		},
		{
			"buffer":0,
			"byteLength":14004,
			"byteOffset":41344,
			"target":34963
		}
	],
	"samplers":[
		{
			"magFilter":9729,
			"minFilter":9987
		}
	],
	"buffers":[
		{
			"byteLength":55348,
			"uri":"ghostdonut.bin"
		}
	]
}
