{
	"asset":{
		"copyright":"METATIGER",
		"generator":"Khronos glTF Blender I/O v4.4.56",
		"version":"2.0"
	},
	"scene":0,
	"scenes":[
		{
			"name":"Scene",
			"nodes":[
				0
			]
		}
	],
	"nodes":[
		{
			"mesh":0,
			"name":"pumpkin",
			"rotation":[
				0.7071068286895752,
				0,
				0,
				0.7071068286895752
			],
			"scale":[
				32,
				32,
				32
			]
		}
	],
	"materials":[
		{
			"doubleSided":true,
			"name":"pumpkin",
			"pbrMetallicRoughness":{
				"baseColorTexture":{
					"index":0
				},
				"metallicFactor":0
			}
		}
	],
	"meshes":[
		{
			"name":"pumpkin",
			"primitives":[
				{
					"attributes":{
						"POSITION":0,
						"NORMAL":1,
						"TEXCOORD_0":2
					},
					"indices":3,
					"material":0
				}
			]
		}
	],
	"textures":[
		{
			"sampler":0,
			"source":0
		}
	],
	"images":[
		{
			"mimeType":"image/png",
			"name":"pumpkin",
			"uri":"pumpkin.png"
		}
	],
	"accessors":[
		{
			"bufferView":0,
			"componentType":5126,
			"count":1650,
			"max":[
				0.9439336061477661,
				0.9481245279312134,
				0.8829384446144104
			],
			"min":[
				-0.9429492950439453,
				-0.9432013034820557,
				-0.8661848306655884
			],
			"type":"VEC3"
		},
		{
			"bufferView":1,
			"componentType":5126,
			"count":1650,
			"type":"VEC3"
		},
		{
			"bufferView":2,
			"componentType":5126,
			"count":1650,
			"type":"VEC2"
		},
		{
			"bufferView":3,
			"componentType":5123,
			"count":7944,
			"type":"SCALAR"
		}
	],
	"bufferViews":[
		{
			"buffer":0,
			"byteLength":19800,
			"byteOffset":0,
			"target":34962
		},
		{
			"buffer":0,
			"byteLength":19800,
			"byteOffset":19800,
			"target":34962
		},
		{
			"buffer":0,
			"byteLength":13200,
			"byteOffset":39600,
			"target":34962
		},
		{
			"buffer":0,
			"byteLength":15888,
			"byteOffset":52800,
			"target":34963
		}
	],
	"samplers":[
		{
			"magFilter":9729,
			"minFilter":9987
		}
	],
	"buffers":[
		{
			"byteLength":68688,
			"uri":"pumpkin.bin"
		}
	]
}
