{
	"asset":{
		"copyright":"METATIGER",
		"generator":"Khronos glTF Blender I/O v4.4.56",
		"version":"2.0"
	},
	"scene":0,
	"scenes":[
		{
			"name":"Scene",
			"nodes":[
				0
			]
		}
	],
	"nodes":[
		{
			"mesh":0,
			"name":"tree_green",
			"translation":[
				0,
				0.9524284601211548,
				0
			]
		}
	],
	"materials":[
		{
			"doubleSided":true,
			"emissiveFactor":[
				1,
				1,
				1
			],
			"emissiveTexture":{
				"index":0
			},
			"name":"tree_green",
			"normalTexture":{
				"index":1,
				"scale":4
			},
			"pbrMetallicRoughness":{
				"baseColorTexture":{
					"index":2
				},
				"metallicFactor":0
			}
		}
	],
	"meshes":[
		{
			"name":"tree_green",
			"primitives":[
				{
					"attributes":{
						"POSITION":0,
						"NORMAL":1,
						"TEXCOORD_0":2
					},
					"indices":3,
					"material":0
				}
			]
		}
	],
	"textures":[
		{
			"sampler":0,
			"source":0
		},
		{
			"sampler":0,
			"source":1
		},
		{
			"sampler":0,
			"source":0
		}
	],
	"images":[
		{
			"mimeType":"image/png",
			"name":"tree_green_emission",
			"uri":"tree_green_emission.png"
		},
		{
			"mimeType":"image/png",
			"name":"tree_normal",
			"uri":"tree_normal.png"
		}
	],
	"accessors":[
		{
			"bufferView":0,
			"componentType":5126,
			"count":4751,
			"max":[
				0.8655513525009155,
				0.9487840533256531,
				0.6606879830360413
			],
			"min":[
				-0.8589670658111572,
				-0.9557738304138184,
				-0.6513715982437134
			],
			"type":"VEC3"
		},
		{
			"bufferView":1,
			"componentType":5126,
			"count":4751,
			"type":"VEC3"
		},
		{
			"bufferView":2,
			"componentType":5126,
			"count":4751,
			"type":"VEC2"
		},
		{
			"bufferView":3,
			"componentType":5123,
			"count":23658,
			"type":"SCALAR"
		}
	],
	"bufferViews":[
		{
			"buffer":0,
			"byteLength":57012,
			"byteOffset":0,
			"target":34962
		},
		{
			"buffer":0,
			"byteLength":57012,
			"byteOffset":57012,
			"target":34962
		},
		{
			"buffer":0,
			"byteLength":38008,
			"byteOffset":114024,
			"target":34962
		},
		{
			"buffer":0,
			"byteLength":47316,
			"byteOffset":152032,
			"target":34963
		}
	],
	"samplers":[
		{
			"magFilter":9729,
			"minFilter":9987
		}
	],
	"buffers":[
		{
			"byteLength":199348,
			"uri":"tree_green.bin"
		}
	]
}
