{
	"asset":{
		"copyright":"METATIGER",
		"generator":"Khronos glTF Blender I/O v4.4.56",
		"version":"2.0"
	},
	"scene":0,
	"scenes":[
		{
			"name":"Scene",
			"nodes":[
				0
			]
		}
	],
	"nodes":[
		{
			"mesh":0,
			"name":"unicorn_halloween"
		}
	],
	"materials":[
		{
			"doubleSided":true,
			"name":"unicorn_halloween",
			"pbrMetallicRoughness":{
				"baseColorTexture":{
					"index":0
				},
				"metallicFactor":0.8999999761581421,
				"roughnessFactor":0.6000000238418579
			}
		}
	],
	"meshes":[
		{
			"name":"unicorn_halloween",
			"primitives":[
				{
					"attributes":{
						"POSITION":0,
						"NORMAL":1,
						"TEXCOORD_0":2
					},
					"indices":3,
					"material":0
				}
			]
		}
	],
	"textures":[
		{
			"sampler":0,
			"source":0
		}
	],
	"images":[
		{
			"mimeType":"image/png",
			"name":"unicorn_halloween",
			"uri":"unicorn_halloween.png"
		}
	],
	"accessors":[
		{
			"bufferView":0,
			"componentType":5126,
			"count":679,
			"max":[
				58.437660217285156,
				135.84156799316406,
				107.1982421875
			],
			"min":[
				-58.44392013549805,
				0.044368013739585876,
				-105.98802947998047
			],
			"type":"VEC3"
		},
		{
			"bufferView":1,
			"componentType":5126,
			"count":679,
			"type":"VEC3"
		},
		{
			"bufferView":2,
			"componentType":5126,
			"count":679,
			"type":"VEC2"
		},
		{
			"bufferView":3,
			"componentType":5123,
			"count":3192,
			"type":"SCALAR"
		}
	],
	"bufferViews":[
		{
			"buffer":0,
			"byteLength":8148,
			"byteOffset":0,
			"target":34962
		},
		{
			"buffer":0,
			"byteLength":8148,
			"byteOffset":8148,
			"target":34962
		},
		{
			"buffer":0,
			"byteLength":5432,
			"byteOffset":16296,
			"target":34962
		},
		{
			"buffer":0,
			"byteLength":6384,
			"byteOffset":21728,
			"target":34963
		}
	],
	"samplers":[
		{
			"magFilter":9729,
			"minFilter":9987
		}
	],
	"buffers":[
		{
			"byteLength":28112,
			"uri":"unicorn_halloween.bin"
		}
	]
}
